<?xml version="1.0" encoding="utf-8"?>
<!-- Generator: Adobe Illustrator 20.1.0, SVG Export Plug-In . SVG Version: 6.00 Build 0)  -->
<svg version="1.1" id="Capa_1" xmlns="http://www.w3.org/2000/svg" xmlns:xlink="http://www.w3.org/1999/xlink" x="0px" y="0px"
	 viewBox="0 0 548.4 841.1" style="enable-background:new 0 0 548.4 841.1;" xml:space="preserve">
<style type="text/css">
	.st0{fill:#FFFFFF;}
</style>
<g>
	<g id="facebook">
		<g>
			<path class="st0" d="M496.5,21.5l-120.4,0.1c0,0-2.4-0.2-6.8-0.2c-24.7,0-149.6,6.9-183.6,140.8c-0.5,1.5-12,35-12.1,113H59.3
				c-10.1,0-18.4,8.2-18.4,18.4v105.2c0,10.1,8.2,18.4,18.4,18.4h124.9V795c0,10.1,8.2,18.4,18.4,18.4h143
				c10.1,0,18.4-8.2,18.4-18.4V417.5h125.3c10.1,0,18.4-8.2,18.4-18.4V293.5c0-10.1-8.2-18.4-18.4-18.4h-125V230
				c0-30.1,19.1-62.2,72.7-62.2h59.6c10.1,0,18.3-8.2,18.3-18.4V39.9C514.8,29.7,506.6,21.5,496.5,21.5z M478.1,131.1h-41.3
				c-75.6,0-109.4,49.7-109.4,98.9v63.5c0,10.1,8.2,18.4,18.4,18.4h125v68.9H345.6c-10.1,0-18.4,8.2-18.4,18.4v377.5H220.9V398.8
				c0-10.1-8.2-18.4-18.4-18.4H77.7v-68.5H192c4.9,0,9.7-2,13.1-5.5s5.3-8.3,5.2-13.2c-1.6-83.5,9.8-118.6,10.4-120.4
				C247.8,66.4,341.3,58.1,369.3,58.1c2.6,0,4.1,0.1,5.6,0.1h103.3v72.9H478.1z"/>
		</g>
	</g>
</g>
</svg>
