<?xml version="1.0" encoding="utf-8"?>
<!-- Generator: Adobe Illustrator 20.1.0, SVG Export Plug-In . SVG Version: 6.00 Build 0)  -->
<svg version="1.1" id="Layer_1" xmlns="http://www.w3.org/2000/svg" xmlns:xlink="http://www.w3.org/1999/xlink" x="0px" y="0px"
	 viewBox="0 0 1331.5 174.7" style="enable-background:new 0 0 1331.5 174.7;" xml:space="preserve">
<style type="text/css">
	.st0{fill:#333333;}
</style>
<g>
	<path class="st0" d="M86.8,17l24.3,22.6v6.2H46.8v36.6h32.8l24.3,22.6v6h-57v63.8h-5.5l-25.1-22.3V37.5L0,23v-6H86.8z"/>
	<path class="st0" d="M198.8,47.5l25.3,22.3v104.9h-5.5l-10.8-9.4l-21.9,7.7h-18.3c-11.3,0-14.9-0.9-28.7-13
		c-13.6-11.5-16.2-17.2-16.2-27.4V47.5h5.5l25.3,22.3v74.5h21.3l18.5-6V47.5H198.8z"/>
	<path class="st0" d="M261.7,17l23.8,21.5v10.6h8.5l24.3,22.6v6.2h-32.8v67.7h13.6l24.3,21.3v6.2h-22.3c-11.5,0-14.9-0.9-28.9-13
		c-13.4-11.5-17.2-17.2-17.2-27.4v-57l-21.1-20.2v-6.2h21.3V17H261.7z"/>
	<path class="st0" d="M409.2,47.5l25.3,22.3v104.9H429l-10.8-9.4l-21.9,7.7h-18.3c-11.3,0-14.9-0.9-28.7-13
		c-13.6-11.5-16.2-17.2-16.2-27.4V47.5h5.5l25.3,22.3v74.5h21.3l18.5-6V47.5H409.2z"/>
	<path class="st0" d="M508.2,77.9l-18.5,9.4v87.5h-5.7l-25.1-22.3V47.5h5.5l13.2,11.5l19.6-9.8h6.6l24.5,22.6v6.2H508.2z"/>
	<path class="st0" d="M575,108.1l34.7-16V76.8h-35.8c-3.8,0-5.7,1.7-5.7,6.2v62.6h47.2l24.3,21.3v6.2h-55.7
		c-11.5,0-14.9-0.9-28.9-13c-13.2-11.5-17.2-17.2-17.2-27.4V72.8c0-15.5,8.9-23.6,22.8-23.6h33.8c11.3,0,14.7,0.9,28.7,13
		c12.3,10.8,15.7,16.4,16.2,25.3V110l-40.6,17.9L575,112.4V108.1z"/>
	<path class="st0" d="M779.3,17l24.3,22.6v6.2h-64.3v36.6H772l24.3,22.6v6h-57v63.8h-5.5l-25.1-22.3V37.5L692.5,23v-6H779.3z"/>
	<polygon class="st0" points="816.7,0 841.9,22.1 841.9,48.7 836.1,48.7 811,26.4 811,0 	"/>
	<polygon class="st0" points="816.7,47.5 841.9,69.6 841.9,174.7 836.1,174.7 811,152.4 811,47.5 	"/>
	<path class="st0" d="M912.7,49.2c11.1,0,14.7,0.9,28.7,13c13.4,11.5,16,17.2,16,27.4v31.1h-5.5l-25.1-22.3V77.9h-29.2
		c-3.2,0.4-4.7,2.1-4.7,6v61.7h39.8l24.3,21.3v6.2h-48.7c-11.5,0-14.9-0.9-28.9-13c-13.2-11.5-17.2-17.2-17.2-27.4V72.8
		c0-15.5,8.9-23.6,22.8-23.6H912.7z"/>
	<path class="st0" d="M990,17l23.8,21.5v10.6h8.5l24.3,22.6v6.2h-32.8v67.7h13.6l24.3,21.3v6.2h-22.3c-11.5,0-14.9-0.9-28.9-13
		c-13.4-11.5-17.2-17.2-17.2-27.4v-57l-21.1-20.2v-6.2h21.3V17H990z"/>
	<path class="st0" d="M1063,0l25.1,22.1v26.6h-5.7l-25.1-22.3V0H1063z M1063,47.5l25.1,22.1v105.1h-5.7l-25.1-22.3V47.5H1063z"/>
	<path class="st0" d="M1164.9,49.2c11.3,0,14.7,0.9,28.7,13c13.6,11.5,16.2,17.2,16.2,27.4v59.8c0,15.8-8.7,23.6-23,23.6h-33.6
		c-11.3,0-14.9-0.9-28.7-13c-13.6-11.5-16.2-17.2-16.2-27.4V72.8c0-15.5,8.9-23.6,22.8-23.6H1164.9z M1178.9,77.9h-34
		c-3.4,0-5.7,1.5-5.7,6v60.4h34c3.6,0,5.7-1.5,5.7-6V77.9z"/>
	<path class="st0" d="M1286.6,49.2c11.3,0,14.7,0.9,28.7,13c13.6,11.5,16.2,17.2,16.2,27.4v85.1h-5.5l-25.3-22.3V77.9h-22.1
		l-17.7,8.5v88.3h-5.7l-25.1-22.3V47.5h5.5l13,11.5l19.8-9.8H1286.6z"/>
</g>
</svg>
