<svg id="Capa_1" data-name="Capa 1" xmlns="http://www.w3.org/2000/svg" viewBox="0 0 91.33 55.14"><defs><style>.cls-1{fill:#fff;}</style></defs><title>Artboard 34</title><path class="cls-1" d="M34.86,55a7.87,7.87,0,0,0,5.67-4A23.5,23.5,0,0,1,31,44.41l-.42-.49-.47-.6c-.34-.45-.6-.82-.8-1.12l-.17-.26-.49-.24a9.71,9.71,0,0,1-1.86-.91c-1.77-.78-3.19-.85-4.21-.19-1.18.76-1.92,2.59-1.92,4.78,0,0,0,.09,0,.13s0,.31,0,.46a9.1,9.1,0,0,0,.19,1.39c0,.17.06.35.11.51a4,4,0,0,0,.32.77C23.23,52.25,31.16,55.77,34.86,55Z"/><path class="cls-1" d="M42.59,35.38l-.12-.05-.41-.19a11.3,11.3,0,0,0-2.42-.87,8.58,8.58,0,0,0-1.4-.23,7.28,7.28,0,0,0-1,0c-.74,1.36-1.53,2.71-2.3,3.91-.52.82-1,1.56-1.51,2.18a9.42,9.42,0,0,1-1.29,1.41l.45.57.4.48.52.58a21.7,21.7,0,0,0,1.77,1.68A20.6,20.6,0,0,0,42,48.65c.26.09.52.19.79.27h0c1.86.56,2.49.33,2.56.3a11.68,11.68,0,0,0,7.38-10.77A17.16,17.16,0,0,1,43.81,36C43.39,35.78,43,35.59,42.59,35.38Z"/><path class="cls-1" d="M18,47.15c0-.1,0-.19,0-.29a12.23,12.23,0,0,1-.1-1.5c0-3.15,1.18-5.79,3.16-7.07a5.56,5.56,0,0,1,2.31-.82c-1.87-2.81-3.33-7.6-.76-15.22v0a12.25,12.25,0,0,1-5.85,1.59c-.3,0-.59,0-.9,0l.06-1.36L16,21.13a9.7,9.7,0,0,0,4.22-.75,10.49,10.49,0,0,0,3.13-2.08,8.7,8.7,0,0,1,1.92-3.2,6.67,6.67,0,0,1,1.05-.88c.08-.05.14-.12.22-.17l2,1.71-.14.29c-.13.26-.35.68-.68,1.19a16.07,16.07,0,0,1-1.94,2.51c0,.16-.08.31-.11.47a12.74,12.74,0,0,0-.27,2.24l-.07.46a21.44,21.44,0,0,0-1.3,6.9,10.39,10.39,0,0,0,2.21,6.85A8.38,8.38,0,0,0,28,38.36a6.88,6.88,0,0,0,1.72.84,3,3,0,0,0,.74.15,8,8,0,0,0,1.2-1.46c.24-.34.5-.74.77-1.16.64-1,1.34-2.19,2-3.43.32-.57.63-1.14.94-1.71l0-.06.6-1.13.63-1.25c.35-.7.66-1.35.92-1.94s.42-1,.56-1.37l.08-.23a7.31,7.31,0,0,1,.53-1.14c.43-.79,1-1.74,1.81-2.92.41-.62.85-1.31,1.31-2l.42-.67.08-.12.29-.48.36-.61.38-.67.3-.53a27.57,27.57,0,0,0,1.74-3.76c1-2.67,1.18-5.18-.43-6.8a21.76,21.76,0,0,0-1.84-1.65,17.6,17.6,0,0,0-8-3.54A48.57,48.57,0,0,0,25.72,0c-1.44,0-3,0-4.66.12-.43,0-.84.07-1.26.11a24.47,24.47,0,0,0-9.05,2.6l-.45.23c-.58.23-1.14.47-1.66.73A15.39,15.39,0,0,0,3.32,8l-.16.22c-.13.17-.26.34-.38.51s-.28.44-.41.66v0l-.1.16A18.68,18.68,0,0,0,0,19.46c0,.07,0,.14,0,.22A39.17,39.17,0,0,0,1.19,29l0,.21c0,.19,0,.32,0,.47-.1.67-.17,1.32-.24,2,0,.08,0,.17,0,.25s0,.36,0,.54c-.46,4.93.59,7.83,1.53,9.36a7.26,7.26,0,0,0,.46.67c2.41,3.51,6.47,4.38,9.76,5l.42.08a4.78,4.78,0,0,0,1.2,0A8.52,8.52,0,0,0,18,47.15Z"/><path class="cls-1" d="M44.88,19.91c-.69,1.13-1.37,2.19-2,3.13a24.6,24.6,0,0,0-2,3.41l-.07.19c-.12.34-.32.82-.58,1.4s-.74,1.6-1.21,2.56l.69.35,1.23.58.24.11c.71.33,1.48.7,2.28,1.09l.52.27a37,37,0,0,0,9.41,2.64,5.5,5.5,0,0,0,.66-.14,2.48,2.48,0,0,0,1.59-1.17c.23-.45.51-1,.81-1.51,1.13-2.05,2.69-4.86,2.69-7.16a4.12,4.12,0,0,0-.17-1.22c-.58-1.87-4.87-3-8.88-3.37C49,21,47.94,20.92,47,20.9l-.74-.23a14.56,14.56,0,0,0-1.32-.76Z"/><path class="cls-1" d="M46.34,17.36c2.12.29,4,.56,5.08.74,1.37.24,4.54.45,7.83.63,4.81.25,9.88.42,10,.42.42,0,1.12.16,2,.31,4.86.85,16.26,2.84,19.5-3.49A3.25,3.25,0,0,0,91,12.85C89.21,9.43,79.84,8.35,76.76,8l-1.08-.13-.95-.12A119,119,0,0,1,50.46,2.36c-.49-.17-1-.32-1.54-.47a34.93,34.93,0,0,0-5.64-1A22.58,22.58,0,0,1,47,4C50.46,7.44,48.82,12.71,46.34,17.36Z"/></svg>