<?xml version="1.0" encoding="utf-8"?>
<!-- Generator: Adobe Illustrator 20.1.0, SVG Export Plug-In . SVG Version: 6.00 Build 0)  -->
<svg version="1.1" id="Layer_1" xmlns="http://www.w3.org/2000/svg" xmlns:xlink="http://www.w3.org/1999/xlink" x="0px" y="0px"
	 viewBox="0 0 18.7 18.9" style="enable-background:new 0 0 18.7 18.9;" xml:space="preserve">
<style type="text/css">
	.st0{fill:#FFFFFF;}
</style>
<path class="st0" d="M13,9.5C13,7.6,11.4,6,9.5,6S6,7.6,6,9.5S7.6,13,9.5,13S13,11.5,13,9.5z M14,9.5C14,12,12,14,9.5,14S5,12,5,9.5
	S7,5,9.5,5S14,7.1,14,9.5z M5.5,18C3,18,1,16,1,13.5v-8C1,3.1,3,1,5.5,1h8C16,1,18,3.1,18,5.5v8c0,2.5-2,4.5-4.5,4.5H5.5z M5.5,17h8
	c1.9,0,3.5-1.6,3.5-3.5v-8C17,3.6,15.4,2,13.5,2h-8C3.6,2,2,3.6,2,5.5v8C2,15.5,3.6,17,5.5,17z M15.5,4.5c0,0.6-0.4,1-1,1
	s-1-0.4-1-1s0.4-1,1-1C15,3.5,15.5,4,15.5,4.5z"/>
</svg>
