<?xml version="1.0" encoding="utf-8"?>
<!-- Generator: Adobe Illustrator 20.1.0, SVG Export Plug-In . SVG Version: 6.00 Build 0)  -->
<svg version="1.1" id="Layer_1" xmlns="http://www.w3.org/2000/svg" xmlns:xlink="http://www.w3.org/1999/xlink" x="0px" y="0px"
	 viewBox="0 0 139 40.5" style="enable-background:new 0 0 139 40.5;" xml:space="preserve">
<style type="text/css">
	.st0{fill:#231F20;}
</style>
<title>british_councilArtboard 15</title>
<path class="st0" d="M55.9,11.7c-0.6-0.2-1.3-0.3-1.9-0.3h-3.7v4.7h3.4c0.7,0,1.5-0.1,2.2-0.3c0.8-0.4,1.3-1.2,1.2-2.1
	C57.2,12.8,56.7,12,55.9,11.7z M55.1,4.7c-0.5-0.2-1-0.3-1.6-0.3h-3.1v4.4h2.9c0.7,0,1.3-0.1,1.9-0.4c1-0.7,1.3-2,0.6-3
	C55.6,5.1,55.4,4.9,55.1,4.7 M47.5,18.7V1.8h6.2c1,0,2,0.1,2.9,0.5c1.5,0.7,2.5,2.2,2.5,3.8c0.1,1.5-0.7,2.8-2,3.5v0.2
	c1.9,0.3,3.2,2,3.1,3.8c0,2.3-1.5,4.2-3.7,4.7c-1,0.3-2.1,0.4-3.2,0.4H47.5"/>
<polygon class="st0" points="77,18.7 77,1.8 79.9,1.8 79.9,18.7 "/>
<polygon class="st0" points="98,18.7 98,1.8 100.9,1.8 100.9,18.7 "/>
<path class="st0" d="M110.2,1.7c1.6,0,3.2,0.3,4.7,0.9v2.8c-1.5-0.8-3.1-1.2-4.8-1.2c-1.6,0-2.9,0.5-2.9,1.8c0,3.5,8.7,2.1,8.7,7.8
	c0,3.1-2.7,5.1-6.5,5.1c-2,0-4-0.5-5.7-1.5l1.2-2.3c1.4,0.9,3,1.3,4.6,1.3c1.7,0,3.4-0.7,3.4-2.2c0-3.6-8.6-2-8.6-7.8
	C104.2,3.4,106.6,1.7,110.2,1.7L110.2,1.7z"/>
<polygon class="st0" points="129.5,18.7 129.5,11.4 121.3,11.4 121.3,18.7 118.5,18.7 118.5,1.8 121.3,1.8 121.3,8.7 129.5,8.7 
	129.5,1.8 132.4,1.8 132.4,18.7 "/>
<path class="st0" d="M53.9,21.6c1.6,0,3.2,0.3,4.7,1L57.7,25c-1.1-0.5-2.3-0.8-3.5-0.8c-3.2,0-5.2,2.7-5.2,6s1.9,6,5.2,6
	c1.2,0,2.4-0.3,3.5-0.8l0.9,2.5c-1.5,0.7-3.1,1-4.7,1c-5,0-7.9-3.5-7.9-8.6C45.9,25.5,48.8,21.6,53.9,21.6L53.9,21.6z"/>
<path class="st0" d="M117.1,21.6c1.6,0,3.2,0.3,4.7,1l-0.9,2.4c-1.1-0.6-2.3-0.8-3.5-0.8c-3.2,0-5.2,2.7-5.2,6s1.9,6,5.2,6
	c1.2,0,2.4-0.3,3.5-0.8l0.9,2.5c-1.5,0.7-3.1,1-4.7,1c-5,0-7.9-3.5-7.9-8.6C109.2,25.5,112.1,21.6,117.1,21.6L117.1,21.6z"/>
<path class="st0" d="M72,30.2c0-3.7-2.1-6-4.9-6s-4.9,2.3-4.9,6.1s2.1,6,4.9,6S72,34,72,30.2z M75,30.2c0,5.1-3.2,8.7-8,8.7
	s-8-3.5-8-8.6s3.2-8.7,8-8.7S75,25.2,75,30.2"/>
<path class="st0" d="M77,32.3V21.8h2.9v10.6c0,2.8,1.5,3.9,3.9,3.9s3.9-1,3.9-3.9V21.8h2.9v10.5c0,4.6-2.6,6.6-6.8,6.6
	S77,36.9,77,32.3L77,32.3z"/>
<path class="st0" d="M96,26.4L96,26.4c0,0.6,0,1.5,0,2.2v10h-2.9V21.8h3.1l7.8,11.5h0.1c-0.1-0.6-0.1-1.5-0.1-2.2v-9.3h2.9v16.8
	h-2.6L96,26.4L96,26.4z"/>
<polygon class="st0" points="124,38.6 124,21.8 126.9,21.8 126.9,38.6 "/>
<polygon class="st0" points="129.5,38.6 129.5,21.8 132.4,21.8 132.4,36 139,36 139,38.6 "/>
<polygon class="st0" points="95.8,1.8 82.1,1.8 82.1,4.5 87.5,4.5 87.5,18.7 90.4,18.7 90.4,4.5 95.8,4.5 "/>
<path class="st0" d="M68,4.4h-3v5.1h2.9c2.1,0,3-1.1,3-2.6C70.9,5.6,70,4.4,68,4.4L68,4.4z M71.8,18.7c-2.5-5.1-3.1-6.5-4.1-6.5H65
	v6.5h-2.9V1.8h5.7c4.3,0,6,2.3,6,4.9c0.1,2-1.2,3.8-3.1,4.3l0,0c0.8,0.4,1.6,2,4.4,7.6L71.8,18.7z"/>
<path class="st0" d="M19.2,9.9c0,5.3-4.3,9.6-9.6,9.6S0,15.2,0,9.9s4.3-9.6,9.6-9.6l0,0C14.9,0.3,19.2,4.6,19.2,9.9L19.2,9.9z"/>
<path class="st0" d="M39.8,9.9c0,5.3-4.3,9.6-9.6,9.6s-9.6-4.3-9.6-9.6s4.3-9.6,9.6-9.6l0,0C35.5,0.3,39.8,4.6,39.8,9.9z"/>
<path class="st0" d="M19.2,30.5c0,5.3-4.3,9.6-9.6,9.6S0,35.8,0,30.5s4.3-9.6,9.6-9.6l0,0C14.9,20.9,19.2,25.2,19.2,30.5L19.2,30.5z
	"/>
<path class="st0" d="M39.8,30.5c0,5.3-4.3,9.6-9.6,9.6s-9.6-4.3-9.6-9.6c0-5.3,4.3-9.6,9.6-9.6l0,0C35.5,20.9,39.8,25.2,39.8,30.5z"
	/>
</svg>
