<?xml version="1.0" encoding="utf-8"?>
<!-- Generator: Adobe Illustrator 20.1.0, SVG Export Plug-In . SVG Version: 6.00 Build 0)  -->
<svg version="1.1" id="Layer_1" xmlns="http://www.w3.org/2000/svg" xmlns:xlink="http://www.w3.org/1999/xlink" x="0px" y="0px"
	 viewBox="0 0 125.3 61.4" style="enable-background:new 0 0 125.3 61.4;" xml:space="preserve">
<style type="text/css">
	.st0{fill:#A0C814;}
</style>
<g>
	<path class="st0" d="M45.5,20.3c5.6,0,10.1-4.6,10.1-10.2S51,0,45.4,0S35.3,4.6,35.3,10.1C35.3,15.8,39.8,20.3,45.5,20.3
		C45.4,20.3,45.5,20.3,45.5,20.3z M45.5,2.3c4.4,0,7.9,3.5,7.9,7.9s-3.5,7.9-7.9,7.9s-7.9-3.5-7.9-7.9S41.1,2.3,45.5,2.3z"/>
	<path class="st0" d="M20,27.8c0-4.3,3.5-7.8,7.8-7.8v-2.2c-5.5,0-10,4.5-10,10s4.5,10,10,10s10-4.5,10-10h-2.2
		c0,4.3-3.5,7.8-7.8,7.8S20,32.1,20,27.8z"/>
	<path class="st0" d="M13.4,27.8c0,8,6.5,14.4,14.4,14.4c8,0,14.4-6.5,14.4-14.4H40C40,34.5,34.5,40,27.8,40s-12.2-5.5-12.2-12.2
		s5.5-12.2,12.2-12.2v-2.2C19.8,13.4,13.4,19.9,13.4,27.8L13.4,27.8z"/>
	<path class="st0" d="M8.9,27.8c0,10.4,8.5,18.9,18.9,18.9s18.9-8.5,18.9-18.9h-2.2c0,9.2-7.4,16.6-16.6,16.6S11.1,37,11.1,27.8
		s7.4-16.6,16.6-16.6V9C17.3,9,8.9,17.4,8.9,27.8C8.9,27.9,8.9,27.9,8.9,27.8L8.9,27.8z"/>
	<path class="st0" d="M27.8,4.4C14.9,4.4,4.4,14.9,4.4,27.8s10.5,23.4,23.4,23.4s23.4-10.5,23.4-23.4H49c0,11.7-9.5,21.1-21.1,21.1
		c-11.7,0-21.1-9.5-21.1-21.1S16.3,6.7,27.9,6.7V4.4L27.8,4.4z"/>
	<path class="st0" d="M27.8,53.5C13.7,53.5,2.2,42,2.2,27.9S13.7,2.3,27.8,2.3V0C12.4,0,0,12.5,0,27.8s12.5,27.8,27.8,27.8
		s27.8-12.5,27.8-27.8h-2.2C53.4,42,41.9,53.5,27.8,53.5z"/>
	<path class="st0" d="M67.6,24.3c1.1,0,2.2-0.2,3.2-0.6v-6H67v1.9h1.5v2.7c-0.3,0.1-0.7,0.1-1,0.1c-1.7,0-3-0.9-3-3.8
		s1.3-3.7,3.3-3.7c0.9,0,1.8,0.2,2.6,0.5l0.2-1.9c-1-0.3-2-0.5-3-0.5c-3.4,0-5.6,1.8-5.6,5.7S64.1,24.3,67.6,24.3z"/>
	<path class="st0" d="M105.9,24.1h2.4v-11h-2.4v4.3h-3.5v-4.3h-2.3v11h2.3v-4.7h3.5V24.1z"/>
	<path class="st0" d="M96.4,24.1v-9h2.3v-2h-7.1v2H94v9H96.4z"/>
	<path class="st0" d="M86,19.4h3.9v-1.9H86v-2.4h4.6v-2h-6.9v11h7.1v-2H86L86,19.4z"/>
	<path class="st0" d="M77.2,24.4c3.1,0,4.6-1.7,4.6-5.8s-1.5-5.8-4.6-5.8c-3.1,0-4.6,1.7-4.6,5.8S74.2,24.4,77.2,24.4z M77.2,14.7
		c1.5,0,2.2,0.9,2.2,3.8s-0.7,3.9-2.2,3.9s-2.2-1-2.2-3.9S75.7,14.7,77.2,14.7z"/>
	<path class="st0" d="M117.7,22.1H113v-2.7h3.9v-1.9H113v-2.4h4.5v-2h-6.9v11h7.1L117.7,22.1z"/>
	<path class="st0" d="M83.4,29.7h2.1v8.7h2.4v-8.7H90v-1.9h-6.6V29.7z"/>
	<path class="st0" d="M63,38.4h2.3V27.8H63V38.4z"/>
	<path class="st0" d="M107.9,34.7c0,1.2-0.4,1.9-1.6,1.9s-1.6-0.7-1.6-1.9v-6.9h-2.3v7c0,2.5,1.3,3.8,3.9,3.8s3.9-1.2,3.9-3.8v-7
		h-2.3L107.9,34.7z"/>
	<path class="st0" d="M78.9,30.7c0-0.5,0.3-1.1,1.4-1.1c0.7,0,1.4,0.2,2,0.5l0.2-1.8c-0.8-0.4-1.6-0.5-2.4-0.5
		c-2.4,0-3.5,1.4-3.5,3.2c0,3.4,4.2,2.8,4.2,4.7c0,0.7-0.5,1.2-1.4,1.2c-0.9,0-1.8-0.3-2.5-0.8L76.6,38c0.9,0.5,1.9,0.8,2.9,0.8
		c2.3,0,3.6-1.3,3.6-3.3C83.1,31.7,78.9,32.3,78.9,30.7L78.9,30.7z"/>
	<path class="st0" d="M72.9,34l-3.2-6.2h-2.1v10.6h2.1v-6.2l3.2,6.2h2.2V27.8h-2.2V34z"/>
	<path class="st0" d="M111.3,27.8v1.9h2.1v8.7h2.4v-8.7h2.1v-1.9H111.3z"/>
	<path class="st0" d="M91.2,38.4h2.3V27.8h-2.3V38.4z"/>
	<path class="st0" d="M94.7,29.7h2.2v8.7h2.3v-8.7h2.2v-1.9h-6.7V29.7z"/>
	<path class="st0" d="M97.3,50.1c0,0.8-0.4,1.3-1.1,1.3s-1.1-0.5-1.1-1.3v-4.6h-1.5v4.7c0,1.7,0.9,2.5,2.7,2.5s2.6-0.8,2.6-2.5v-4.7
		h-1.6L97.3,50.1z"/>
	<path class="st0" d="M66.2,56.3c0,0.6-0.2,0.8-0.8,0.8h-1v-1.7h1C66,55.5,66.2,55.8,66.2,56.3z M66.4,59.2c0,0.7-0.3,0.9-0.8,0.9
		h-1.1v-1.8h1.1C66.1,58.3,66.4,58.6,66.4,59.2z M67.9,59.3c0.1-0.8-0.4-1.5-1.1-1.7c0.6-0.3,0.9-0.9,0.9-1.5c0-1.2-0.7-1.8-2.2-1.8
		h-2.6v7.1h2.6C67.2,61.4,67.9,60.6,67.9,59.3z"/>
	<path class="st0" d="M72.8,61.4h1.5v-7.1h-1.5v2.8h-2.2v-2.8h-1.5v7.1h1.5v-3h2.2V61.4z"/>
	<path class="st0" d="M118.9,51.3h-2.8v-1.8h2.3v-1.2h-2.3v-1.6h2.8v-1.2h-4.3v7h4.3V51.3z"/>
	<path class="st0" d="M111.7,45.5v5.8h2.2v1.2h-3.7v-7H111.7z"/>
	<path class="st0" d="M104.6,51.3h-2.8v-1.8h2.3v-1.2h-2.3v-1.6h2.7v-1.2h-4.2v7h4.3V51.3z"/>
	<path class="st0" d="M107.3,45.5v5.8h2.1v1.2h-3.7v-7H107.3z"/>
	<path class="st0" d="M94.4,61.4h-1.3v-7.1h1.3l2.4,4.3v-4.3h1.4v7.1h-1.4l-2.4-4.3V61.4z"/>
	<path class="st0" d="M124.9,47.7c0-1.5-0.8-2.2-2.5-2.2h-2.3v7.1h1.5v-2.7h0.8l1.1,2.7h1.8l-1.5-3C124.6,49.2,125,48.5,124.9,47.7
		L124.9,47.7z M123.3,47.7c0,0.8-0.3,1-0.9,1h-0.8v-2h0.9C123.1,46.7,123.3,47,123.3,47.7z"/>
	<path class="st0" d="M80.8,54.3h1.7l1.2,5.2l1.3-5.2h1.6l-2.1,7.1h-1.7L80.8,54.3z"/>
	<path class="st0" d="M88.2,52.5l-1.5-4v4h-1.4v-7h1.6l1.8,4.7l1.7-4.7H92v7h-1.4v-4l-1.4,4H88.2z"/>
	<path class="st0" d="M74.1,50l-0.7-2.8L72.7,50H74.1z M76.4,52.6h-1.7l-0.3-1.3h-2l-0.3,1.3h-1.6l2.2-7.1h1.7L76.4,52.6z"/>
	<path class="st0" d="M65.9,52.5l-1.5-4v4H63v-7h1.6l1.8,4.7l1.7-4.7h1.6v7h-1.4v-4l-1.5,4H65.9z"/>
	<path class="st0" d="M78.6,58.8L77.9,56l-0.7,2.8H78.6z M81,61.4h-1.7L78.9,60h-2l-0.3,1.3H75l2.2-7.1h1.7L81,61.4z"/>
	<path class="st0" d="M90,58.8L89.3,56l-0.7,2.8H90z M92.4,61.4h-1.7L90.3,60h-2L88,61.3h-1.7l2.2-7.1h1.7L92.4,61.4z"/>
	<path class="st0" d="M78.3,45.5l1.1,2.3l1-2.3h1.7l-1.8,3.4l1.9,3.6h-1.8l-1.1-2.4l-1.1,2.4h-1.7l1.8-3.6l-1.8-3.4H78.3z"/>
</g>
</svg>
