<?xml version="1.0" encoding="utf-8"?>
<!-- Generator: Adobe Illustrator 20.1.0, SVG Export Plug-In . SVG Version: 6.00 Build 0)  -->
<svg version="1.1" id="Layer_1" xmlns="http://www.w3.org/2000/svg" xmlns:xlink="http://www.w3.org/1999/xlink" x="0px" y="0px"
	 viewBox="0 0 157.1 44.4" style="enable-background:new 0 0 157.1 44.4;" xml:space="preserve">
<style type="text/css">
	.st0{fill:#EC008C;}
</style>
<title>prohelveticaArtboard 16</title>
<path class="st0" d="M49.4,8c-0.2,0.2-0.4,0.5-0.6,0.6c-0.3,0.2-0.6,0.3-0.9,0.3h-1.8c-0.3,0-0.6-0.1-0.9-0.3
	c-0.2-0.2-0.5-0.4-0.6-0.7c-0.1-0.1-0.1-0.2-0.2-0.3l0.8-0.3c0.2,0.3,0.4,0.6,0.7,0.7c0.1,0,0.2,0.1,0.3,0.1H48c0.1,0,0.2,0,0.2-0.1
	c0.3-0.2,0.5-0.4,0.7-0.7c0-0.1,0-0.2,0-0.2V6.6c0-0.3-0.3-0.5-0.6-0.5l-2.4-0.2c-0.7,0-1.3-0.6-1.3-1.3V4.2c0-0.3,0.1-0.5,0.2-0.8
	c0.2-0.2,0.4-0.5,0.6-0.6c0.3-0.2,0.6-0.3,0.9-0.3h1.5c0.3,0,0.6,0.1,0.9,0.3c0.2,0.2,0.5,0.4,0.7,0.7c0.1,0.1,0.1,0.2,0.2,0.3
	l-0.8,0.3c-0.2-0.3-0.4-0.6-0.7-0.7c-0.1,0-0.2-0.1-0.2-0.1h-1.5c-0.1,0-0.2,0-0.3,0.1c-0.3,0.2-0.5,0.4-0.6,0.6c0,0.1,0,0.2,0,0.2
	v0.4c0,0.3,0.3,0.5,0.6,0.5l2.4,0.2c0.7,0,1.2,0.6,1.2,1.3v0.5C49.6,7.5,49.5,7.7,49.4,8L49.4,8z"/>
<polygon class="st0" points="58,8.8 56.9,8.8 55.4,3.5 53.9,8.8 52.8,8.8 51,2.5 51.8,2.5 53.3,8 53.4,8 54.8,2.5 55.9,2.5 57.4,8 
	57.5,8 58.9,2.5 59.8,2.5 "/>
<path class="st0" d="M61.3,8.8V2.5h0.8v6.3H61.3z M61.2,0.9V0h0.9v0.9H61.2z"/>
<path class="st0" d="M68.9,8c-0.2,0.2-0.4,0.5-0.6,0.6c-0.3,0.2-0.6,0.3-0.9,0.3h-1.8c-0.3,0-0.6-0.1-0.9-0.3
	c-0.2-0.2-0.5-0.4-0.6-0.7C64,7.8,64,7.7,63.9,7.6l0.8-0.3c0.2,0.3,0.4,0.6,0.7,0.7c0.1,0,0.2,0.1,0.3,0.1h1.8c0.1,0,0.2,0,0.2-0.1
	c0.3-0.2,0.5-0.4,0.6-0.7c0-0.1,0-0.2,0-0.2V6.6c0-0.3-0.3-0.5-0.6-0.5l-2.4-0.2c-0.7,0-1.3-0.6-1.3-1.3V4.2c0-0.3,0.1-0.5,0.2-0.8
	c0.2-0.2,0.4-0.5,0.6-0.6c0.3-0.2,0.6-0.3,0.9-0.3h1.5c0.3,0,0.6,0.1,0.9,0.3c0.2,0.2,0.5,0.4,0.7,0.7c0.1,0.1,0.1,0.2,0.2,0.3
	l-0.8,0.3c-0.2-0.3-0.4-0.6-0.7-0.7c-0.1,0-0.2-0.1-0.2-0.1h-1.5c-0.1,0-0.2,0-0.3,0.1C65.2,3.6,65,3.8,64.9,4c0,0.1,0,0.2,0,0.2
	v0.4c0,0.3,0.3,0.5,0.6,0.5l2.4,0.2c0.7,0,1.3,0.6,1.3,1.3v0.5C69.1,7.5,69.1,7.7,68.9,8L68.9,8z"/>
<path class="st0" d="M75.7,8c-0.2,0.2-0.4,0.5-0.6,0.6c-0.3,0.2-0.6,0.3-0.9,0.3h-1.8c-0.3,0-0.6-0.1-0.9-0.3
	c-0.2-0.2-0.5-0.4-0.6-0.7c-0.1-0.1-0.2-0.3-0.2-0.3l0.8-0.3c0.2,0.3,0.4,0.5,0.7,0.7c0.1,0,0.2,0.1,0.3,0.1h1.8
	c0.1,0,0.2,0,0.2-0.1c0.3-0.2,0.5-0.4,0.6-0.7c0-0.1,0.1-0.2,0.1-0.2V6.6c0-0.3-0.3-0.5-0.6-0.5l-2.4-0.2c-0.7,0-1.3-0.6-1.3-1.3
	V4.2c0-0.3,0.1-0.5,0.2-0.8c0.2-0.2,0.4-0.5,0.6-0.6c0.3-0.2,0.6-0.3,0.9-0.2h1.5c0.3,0,0.6,0.1,0.9,0.3c0.2,0.2,0.5,0.4,0.7,0.7
	c0.1,0.1,0.1,0.2,0.2,0.3l-0.8,0.3c-0.2-0.3-0.4-0.6-0.7-0.7c-0.1,0-0.2-0.1-0.2-0.1h-1.6c-0.1,0-0.2,0-0.3,0.1
	c-0.3,0.2-0.5,0.4-0.6,0.6c0,0.1,0,0.2,0,0.2v0.4c0,0.3,0.3,0.5,0.6,0.5l2.4,0.2C75.4,5.4,76,6,76,6.7v0.5C76,7.5,75.9,7.8,75.7,8
	L75.7,8z"/>
<path class="st0" d="M85.2,7.2V5.9h-2.6c-0.1,0-0.2,0-0.3,0.1c-0.3,0.2-0.5,0.4-0.7,0.7c0,0.1,0,0.2,0,0.2v0.3c0,0.1,0,0.2,0,0.2
	c0.2,0.3,0.4,0.5,0.7,0.7c0.1,0,0.2,0.1,0.3,0.1h1.2c0.1,0,0.1,0,0.2,0C84.5,7.9,84.8,7.6,85.2,7.2L85.2,7.2z M85.3,8.8l-0.1-0.7
	c-0.2,0.2-0.4,0.3-0.6,0.5s-0.5,0.3-0.7,0.3h-1.3c-0.3,0-0.6-0.1-0.9-0.3c-0.2-0.2-0.5-0.4-0.7-0.7c-0.1-0.2-0.2-0.5-0.2-0.8V6.8
	c0-0.3,0.1-0.5,0.2-0.8c0.2-0.2,0.4-0.5,0.7-0.7C82,5.1,82.3,5,82.6,5h2.5V4.1c0-0.1,0-0.2,0-0.2c-0.2-0.3-0.4-0.5-0.7-0.7
	c-0.1,0-0.2-0.1-0.3-0.1h-1.4c-0.1,0-0.2,0-0.2,0.1c-0.3,0.2-0.5,0.4-0.7,0.7L81,3.7c0-0.1,0.1-0.2,0.2-0.3c0.2-0.3,0.4-0.5,0.7-0.7
	c0.3-0.2,0.6-0.3,0.9-0.3h1.3c0.3,0,0.6,0.1,0.9,0.3s0.5,0.4,0.7,0.7c0.2,0.2,0.2,0.5,0.2,0.8v3.6l0.1,1L85.3,8.8z"/>
<path class="st0" d="M91.9,4c-0.2-0.3-0.4-0.5-0.7-0.7c-0.1,0-0.2-0.1-0.3-0.1h-0.7c-0.1,0-0.1,0-0.2,0c-0.4,0.2-0.8,0.5-1.1,0.9
	v4.7h-0.8V3.6l-0.1-1h0.8l0.1,0.8c0.2-0.2,0.4-0.4,0.6-0.5c0.2-0.2,0.5-0.3,0.7-0.3h0.7c0.3,0,0.6,0.1,0.9,0.3
	c0.2,0.2,0.5,0.4,0.6,0.7c0.1,0.1,0.2,0.2,0.2,0.3L91.9,4L91.9,4z"/>
<path class="st0" d="M95.5,3.3V7c0,0.1,0,0.2,0,0.3c0.2,0.3,0.4,0.5,0.7,0.7c0.1,0,0.2,0.1,0.3,0.1h0.9v0.8h-0.9
	c-0.3,0-0.6-0.1-0.9-0.3c-0.2-0.2-0.5-0.4-0.7-0.7c-0.2-0.2-0.2-0.5-0.2-0.8V3.3h-1V2.5h1V0.1h0.8v2.4h1.9v0.8H95.5z"/>
<path class="st0" d="M103.7,8c-0.2,0.2-0.4,0.5-0.6,0.6c-0.3,0.2-0.6,0.3-0.9,0.3h-1.8c-0.3,0-0.6-0.1-0.9-0.3
	c-0.2-0.2-0.5-0.4-0.6-0.7c-0.1-0.1-0.1-0.2-0.2-0.3l0.8-0.3c0.2,0.3,0.4,0.6,0.7,0.7c0.1,0,0.2,0.1,0.3,0.1h1.8
	c0.1,0,0.2,0,0.2-0.1c0.3-0.2,0.5-0.4,0.7-0.7c0-0.1,0-0.2,0-0.2V6.6c0-0.3-0.3-0.5-0.6-0.5l-2.4-0.2c-0.7,0-1.3-0.6-1.3-1.3V4.2
	c0-0.3,0.1-0.5,0.2-0.8c0.2-0.2,0.4-0.5,0.6-0.6c0.3-0.2,0.6-0.3,0.9-0.2h1.5c0.3,0,0.6,0.1,0.9,0.3c0.2,0.2,0.5,0.4,0.7,0.7
	c0.1,0.1,0.1,0.2,0.2,0.3l-0.8,0.3c-0.2-0.3-0.4-0.6-0.7-0.7c-0.1,0-0.2-0.1-0.2-0.1h-1.6c-0.1,0-0.2,0-0.3,0.1
	c-0.3,0.2-0.5,0.4-0.6,0.6c0,0.1,0,0.2,0,0.2v0.4c0,0.3,0.3,0.5,0.6,0.5l2.4,0.2c0.7,0,1.3,0.6,1.3,1.3v0.5
	C104,7.5,103.9,7.8,103.7,8L103.7,8z"/>
<path class="st0" d="M113.3,8.6c-0.3,0.2-0.6,0.3-0.9,0.3h-1.5c-0.3,0-0.6-0.1-0.9-0.3c-0.2-0.2-0.5-0.4-0.7-0.7
	c-0.1-0.2-0.2-0.5-0.2-0.8V4.2c0-0.3,0.1-0.5,0.2-0.8c0.2-0.3,0.4-0.5,0.7-0.7s0.6-0.3,0.9-0.3h1.4c0.3,0,0.6,0.1,0.9,0.3
	c0.3,0.3,0.6,0.6,0.9,1l-0.8,0.2c-0.2-0.3-0.4-0.6-0.7-0.7c-0.1,0-0.2-0.1-0.3-0.1h-1.5c-0.1,0-0.2,0-0.3,0.1
	c-0.3,0.2-0.5,0.4-0.7,0.7c0,0.1,0,0.2,0,0.2V7c0,0.1,0,0.2,0,0.2c0.2,0.3,0.4,0.5,0.7,0.7c0.1,0,0.2,0.1,0.3,0.1h1.5
	c0.1,0,0.2,0,0.3-0.1c0.3-0.2,0.5-0.4,0.7-0.7l0,0l0.8,0.3C114,8,113.7,8.3,113.3,8.6L113.3,8.6z"/>
<path class="st0" d="M120,4.3c0-0.1,0-0.2,0-0.2c-0.2-0.3-0.4-0.5-0.7-0.7c-0.1,0-0.2-0.1-0.3-0.1h-1.4c-0.1,0-0.2,0-0.3,0.1
	c-0.3,0.2-0.5,0.4-0.7,0.7c0,0.1,0,0.2,0,0.2v2.9c0,0.1,0,0.2,0,0.2c0.2,0.3,0.4,0.5,0.7,0.7c0.1,0,0.2,0.1,0.3,0.1h1.4
	c0.1,0,0.2,0,0.3-0.1c0.3-0.2,0.5-0.4,0.7-0.7c0-0.1,0-0.2,0-0.2V4.3L120,4.3z M120.6,7.9c-0.2,0.3-0.4,0.5-0.6,0.7
	c-0.3,0.2-0.6,0.3-0.9,0.3h-1.5c-0.3,0-0.6-0.1-0.9-0.3c-0.2-0.2-0.5-0.4-0.6-0.7c-0.1-0.2-0.2-0.5-0.2-0.8V4.2
	c0-0.3,0.1-0.5,0.2-0.8c0.2-0.3,0.4-0.5,0.6-0.7c0.3-0.2,0.6-0.3,0.9-0.2h1.5c0.3,0,0.6,0.1,0.9,0.3c0.2,0.2,0.5,0.4,0.6,0.7
	c0.1,0.2,0.2,0.5,0.2,0.8v2.9C120.8,7.4,120.8,7.7,120.6,7.9L120.6,7.9z"/>
<path class="st0" d="M127,8.8l-0.1-0.7c-0.2,0.2-0.3,0.3-0.5,0.5s-0.5,0.3-0.7,0.3h-1.1c-0.3,0-0.6-0.1-0.9-0.3
	c-0.2-0.2-0.5-0.4-0.6-0.7c-0.1-0.2-0.2-0.5-0.2-0.8V2.5h0.8v4.6c0,0.1,0,0.2,0,0.2c0.2,0.3,0.4,0.5,0.7,0.7c0.1,0,0.2,0.1,0.3,0.1
	h1c0.1,0,0.1,0,0.2,0c0.4-0.2,0.8-0.5,1.1-0.9V2.5h0.8v5.2l0.1,1L127,8.8z"/>
<path class="st0" d="M134,8.8V4.2c0-0.1,0-0.2,0-0.2c-0.2-0.3-0.4-0.5-0.7-0.7c-0.1,0-0.2-0.1-0.3-0.1h-1c-0.1,0-0.1,0-0.2,0
	c-0.4,0.2-0.8,0.5-1.1,0.9v4.7h-0.8V3.6l-0.1-1h0.8l0.1,0.7c0.2-0.2,0.3-0.3,0.5-0.5c0.2-0.2,0.5-0.3,0.7-0.3h1.1
	c0.3,0,0.6,0.1,0.9,0.3c0.2,0.2,0.5,0.4,0.6,0.7c0.1,0.2,0.2,0.5,0.2,0.8v4.6L134,8.8z"/>
<path class="st0" d="M140.9,8.6c-0.3,0.2-0.6,0.3-0.9,0.3h-1.5c-0.3,0-0.6-0.1-0.9-0.3s-0.5-0.4-0.7-0.7c-0.1-0.2-0.2-0.5-0.2-0.8
	V4.2c0-0.3,0.1-0.5,0.2-0.8c0.2-0.3,0.4-0.5,0.7-0.7c0.3-0.2,0.6-0.3,0.9-0.3h1.4c0.3,0,0.6,0.1,0.9,0.3c0.3,0.3,0.6,0.6,0.9,1
	l-0.8,0.2c-0.2-0.3-0.4-0.6-0.7-0.7c-0.1,0-0.2-0.1-0.3-0.1h-1.3c-0.1,0-0.2,0-0.3,0.1c-0.3,0.2-0.5,0.4-0.7,0.7
	c0,0.1-0.1,0.2-0.1,0.2V7c0,0.1,0,0.2,0.1,0.2c0.2,0.3,0.4,0.5,0.7,0.7c0.1,0,0.2,0.1,0.3,0.1h1.5c0.1,0,0.2,0,0.3-0.1
	c0.3-0.2,0.5-0.4,0.7-0.7l0,0l0.8,0.3C141.6,8,141.3,8.3,140.9,8.6L140.9,8.6z"/>
<path class="st0" d="M143.6,8.8V2.5h0.8v6.3H143.6z M143.6,0.9V0h0.9v0.9H143.6z"/>
<path class="st0" d="M146.7,8.8c-0.1-0.3-0.1-0.5-0.1-0.8V0h0.8v7.8c0,0.3,0.1,0.7,0.1,1H146.7z"/>
<path class="st0" d="M35.6,25.2h-3.3c-2.4-0.1-4.5,1.8-4.6,4.2c0,0.1,0,0.3,0,0.4v0.5h4.4v-3.7h3.8v3.7h4.4v-0.5
	c0.1-2.4-1.8-4.5-4.2-4.6C35.9,25.2,35.7,25.2,35.6,25.2z M35.8,37.6h-3.7v-3.8h-4.4v0.6c-0.1,2.4,1.8,4.5,4.2,4.6
	c0.1,0,0.3,0,0.4,0h3.3c2.4,0.1,4.5-1.8,4.6-4.2c0-0.1,0-0.3,0-0.4v-0.6h-4.4L35.8,37.6L35.8,37.6z"/>
<path class="st0" d="M8,25.2H4.7C2.2,25.1,0.1,27,0,29.5c0,0.1,0,0.3,0,0.4v14.5h3v-5.6l0.1,0.1c0.5,0.2,1,0.2,1.5,0.2h3.3
	c2.5,0.1,4.6-1.8,4.7-4.2c0-0.1,0-0.3,0-0.4v-4.6c0.1-2.5-1.8-4.6-4.3-4.7C8.3,25.2,8.1,25.2,8,25.2z M8,36.1H4.7
	c-0.8,0.1-1.5-0.4-1.6-1.2c0-0.1,0-0.3,0-0.4v-4.6c-0.1-0.8,0.4-1.5,1.2-1.6c0.1,0,0.3,0,0.4,0H8c0.8-0.1,1.5,0.5,1.6,1.3
	c0,0.1,0,0.2,0,0.3v4.6c0.1,0.8-0.5,1.5-1.3,1.6C8.2,36.1,8.1,36.1,8,36.1L8,36.1z"/>
<path class="st0" d="M52.6,25.2h-3.3c-0.5,0-1,0.1-1.5,0.3h-0.2v-5.3h-3v19h3v-9.3c-0.1-0.8,0.5-1.5,1.3-1.6c0.1,0,0.2,0,0.3,0h3.4
	c0.8-0.1,1.5,0.4,1.6,1.2c0,0.1,0,0.3,0,0.4v9.3h3v-9.3c0.1-2.5-1.8-4.6-4.3-4.7C52.8,25.2,52.7,25.2,52.6,25.2z"/>
<path class="st0" d="M138.3,20.2h-3v3.2h3V20.2z M135.3,39.1h3v-14h-3V39.1z"/>
<path class="st0" d="M130.6,28.2v-3h-4.1v-5h-3v5h-2.8v3.1h2.7v6.2c-0.1,2.4,1.7,4.5,4.2,4.7c0.2,0,0.3,0,0.5,0h2.5v-3h-2.5
	c-0.8,0.1-1.5-0.4-1.6-1.2c0-0.1,0-0.3,0-0.4v-6.3L130.6,28.2L130.6,28.2z"/>
<path class="st0" d="M83.3,36.1c-0.8,0.1-1.5-0.4-1.6-1.2c0-0.1,0-0.3,0-0.4V20.2h-3v14.3c-0.2,2.4,1.7,4.5,4.1,4.7
	c0.2,0,0.4,0,0.5,0h2.5v-3L83.3,36.1z"/>
<path class="st0" d="M21.2,25.2c-2.4-0.1-4.5,1.8-4.6,4.2c0,0.2,0,0.3,0,0.5v9.3h3v-9.3c-0.1-0.8,0.4-1.5,1.2-1.6c0.1,0,0.3,0,0.4,0
	h3.7v-3L21.2,25.2z"/>
<path class="st0" d="M98.4,25.2L97,30l-1.4,5.2c-0.2,0.8-0.3,0.9-0.9,0.9s-0.6-0.1-0.8-0.7l-2.8-10.2h-3.2L91,36.1
	c0.7,2.3,1.7,3.1,3.8,3.1s3.1-0.8,3.8-3.2l3-10.9L98.4,25.2z"/>
<path class="st0" d="M69.7,25.2h-3.3c-2.5-0.1-4.6,1.8-4.7,4.3c0,0.1,0,0.3,0,0.4v4.6c-0.1,2.5,1.8,4.6,4.3,4.7c0.1,0,0.3,0,0.4,0
	h7.2v-3h-7.4c-0.8,0.1-1.5-0.5-1.6-1.3c0-0.1,0-0.3,0-0.4v-0.8h7.6c1.2,0,2.1-1,2.1-2.1l0,0v-1.7c0.1-2.5-1.8-4.6-4.3-4.7
	C69.9,25.2,69.8,25.2,69.7,25.2z M66.4,28h3.3c0.9-0.1,1.7,0.5,1.8,1.4c0,0.1,0,0.3,0,0.4v0.9h-6.9v-0.9c-0.1-0.9,0.5-1.7,1.4-1.8
	C66.1,28,66.3,28,66.4,28L66.4,28z"/>
<path class="st0" d="M112.7,25.2h-3.3c-2.5-0.1-4.6,1.8-4.7,4.3c0,0.1,0,0.3,0,0.4v4.6c-0.1,2.5,1.8,4.6,4.2,4.7c0.1,0,0.3,0,0.4,0
	h7.3v-3h-7.4c-0.8,0.1-1.5-0.4-1.7-1.2c0-0.1,0-0.3,0-0.4v-0.8h7.6c1.2,0,2.1-0.9,2.2-2.1l0,0V30c0.1-2.5-1.8-4.6-4.3-4.7
	C113,25.2,112.8,25.2,112.7,25.2z M107.6,30.2c0-1.3,0.7-2.1,1.8-2.1h3.3c0.9-0.1,1.7,0.5,1.8,1.4c0,0.1,0,0.3,0,0.4v0.9h-6.9V30.2z
	"/>
<path class="st0" d="M150.6,25.2h-6.1v3.1h6.1c0.7-0.1,1.4,0.5,1.5,1.2v0.1v0.2c0,0.2-0.2,0.3-0.8,0.4l-4.6,0.5
	c-3.6,0.4-4.2,2.8-4.2,4.3c0,2.9,2.4,4.3,4.7,4.3h4.1c2.1,0.1,3.8-1.5,3.9-3.6c0-0.1,0-0.2,0-0.3V30c0.1-2.4-1.7-4.5-4.2-4.7
	C150.9,25.2,150.7,25.2,150.6,25.2z M151.3,36.2h-4.1c-1.6,0-1.8-0.8-1.8-1.4c0-1,0.3-1.2,1.6-1.4l4.7-0.5l0.6-0.1v2.4
	C152.4,35.9,152,36.2,151.3,36.2L151.3,36.2z"/>
</svg>
