<?xml version="1.0" encoding="utf-8"?>
<!-- Generator: Adobe Illustrator 20.1.0, SVG Export Plug-In . SVG Version: 6.00 Build 0)  -->
<svg version="1.1" id="Layer_1" xmlns="http://www.w3.org/2000/svg" xmlns:xlink="http://www.w3.org/1999/xlink" x="0px" y="0px"
	 viewBox="0 0 85.3 82.2" style="enable-background:new 0 0 85.3 82.2;" xml:space="preserve">
<style type="text/css">
	.st0{fill:#241F21;}
</style>
<title>quicksandArtboard 28</title>
<path class="st0" d="M16.3,42.3c0.2-0.4,0.3-0.8,0.3-1.2c-0.1-1.3-1.2-2.3-2.5-2.3s-2.3,1.2-2.3,2.5c0.1,1.3,1.1,2.3,2.4,2.3
	c0.4,0,0.9-0.1,1.2-0.4l-1.6-1.8l0.9-0.8L16.3,42.3z M55.6,41.9h1.8l-0.9-2.1L55.6,41.9z M71.6,43.5h1c0.7,0,1.4-0.3,1.9-0.8
	c0.3-0.4,0.5-1,0.5-1.6s-0.2-1.1-0.5-1.6c-0.4-0.6-1.1-0.9-1.9-0.8h-1V43.5z M75,44.1c-0.7,0.5-1.6,0.7-2.5,0.7h-2.3v-7.2h2.3
	c0.9-0.1,1.8,0.2,2.5,0.7c1.6,1.3,1.9,3.6,0.7,5.2C75.4,43.7,75.2,43.9,75,44.1 M68,44.8h-1l-4-4.7v4.7h-1.4v-7.2h1l4,4.7v-4.7H68
	V44.8z M60.2,44.8h-1.5L58,43.2h-2.9l-0.7,1.6h-1.5l3.1-7.2h1L60.2,44.8z M48.6,39.5c0,1.2,3.3,0.8,3.3,3.2
	c-0.1,1.3-1.2,2.3-2.4,2.2l0,0c-1,0-1.9-0.4-2.6-1.1l0.9-1c0.4,0.5,1.1,0.8,1.7,0.8c0.5,0,1-0.4,1.1-0.9c0-0.9-1.3-1-2.3-1.6
	c-0.6-0.3-1-0.9-1-1.6c0.1-1.2,1.2-2.1,2.4-2l0,0c0.8,0,1.5,0.2,2.1,0.7l-0.7,1c-0.4-0.3-0.8-0.5-1.3-0.5
	C49.2,38.6,48.6,38.9,48.6,39.5 M42.6,40.8l3.6,3.9h-1.8l-3.2-3.5v3.6h-1.4v-7.2h1.4v2.9l2.8-2.9h1.8L42.6,40.8z M32.7,41.2
	c0,1.3,1.1,2.5,2.4,2.5h0.1c0.8,0,1.5-0.4,2-1l1,0.9c-0.7,0.9-1.8,1.4-3,1.4c-2.1,0-3.7-1.7-3.7-3.7c0-2.1,1.7-3.7,3.7-3.7l0,0
	c1,0,1.9,0.3,2.7,1l-0.9,1c-0.5-0.5-1.1-0.7-1.8-0.8C33.9,38.8,32.8,39.8,32.7,41.2C32.6,41.1,32.6,41.2,32.7,41.2 M29.6,44.8h-1.4
	v-7.2h1.4V44.8z M26,41.7c0.1,0.9-0.3,1.8-1,2.5c-1.3,1-3.1,1-4.3,0c-0.7-0.6-1-1.5-0.9-2.4v-4.2h1.4v4.3c0,0.5,0.1,1,0.4,1.3
	c0.7,0.6,1.8,0.6,2.5,0c0.4-0.4,0.6-0.9,0.5-1.4v-4.3H26V41.7z M17.2,43.5l1.2,1.3h-1.6l-0.5-0.5c-0.6,0.4-1.4,0.6-2.2,0.6
	c-2.1,0-3.7-1.7-3.7-3.8s1.7-3.7,3.8-3.7c2.1,0,3.7,1.7,3.7,3.8C18,42,17.7,42.8,17.2,43.5 M73.6,68.7c15.2-16.9,13.9-42.9-3-58.1
	s-42.9-13.9-58.1,3s-13.9,42.9,3,58.1c16,14.4,40.3,14.1,55.9-0.8l11.3,11.3h2.6L72.7,69.6l-9.8-9.8l0.9-1L73.6,68.7z"/>
</svg>
