<?xml version="1.0" encoding="utf-8"?>
<!-- Generator: Adobe Illustrator 20.1.0, SVG Export Plug-In . SVG Version: 6.00 Build 0)  -->
<svg version="1.1" id="Layer_1" xmlns="http://www.w3.org/2000/svg" xmlns:xlink="http://www.w3.org/1999/xlink" x="0px" y="0px"
	 viewBox="0 0 435.4 389.1" style="enable-background:new 0 0 435.4 389.1;" xml:space="preserve">
<style type="text/css">
	.st0{clip-path:url(#SVGID_2_);fill:#FFFFFF;}
	.st1{clip-path:url(#SVGID_2_);}
</style>
<rect width="138" height="389.1"/>
<g>
	<defs>
		<rect id="SVGID_1_" x="-203.6" y="-103.1" width="841.9" height="595.3"/>
	</defs>
	<clipPath id="SVGID_2_">
		<use xlink:href="#SVGID_1_"  style="overflow:visible;"/>
	</clipPath>
	<path class="st0" d="M37,99.4c0,7.9,3.6,15,9.3,19.6c-5.7,4.6-9.3,11.7-9.3,19.6c0,14.2,8.5,25.2,24.2,25.2h39.3v-11.7H62
		c-8.7,0-14.1-5.9-14.1-13.6c0-7.7,6-14,14.6-14h38.1V119v-5.6H62.5c-8.8,0-14.6-6.3-14.6-13.9c0-7.7,5.4-13.6,14.1-13.6h38.6V74.2
		H61.2C45.5,74.2,37,85.2,37,99.4 M100.6,262.7l-62.1-24v12.9l41.2,15l7,2.2l-7,2.2l-41.2,15.6v12.3l62.1-24V262.7z M53.4,57.3
		l-8.7-8.7l-8.7,8.7l8.7,8.7L53.4,57.3z M56.5,63.3h44.1v-12H56.5V63.3z M69.1,185.4c-11.6,0-21,9.4-21,21c0,11.6,9.4,21,21,21
		c11.6,0,21-9.4,21-21C90,194.8,80.6,185.4,69.1,185.4 M68.3,174.3h32.3v11.3h-8.4c5.2,4.4,9,12.8,9,20.7c0,17.7-14.4,32-32,32
		c-17.7,0-32-14.4-32-32C37,188.7,49.5,174.3,68.3,174.3 M100.6,315.8v29.5H89.5v-29.5c0-5.2-3.6-7.9-7.7-7.9s-7.7,3.1-7.7,7.9v13.7
		c0,11.1-7.7,18.4-17.6,18.4c-9.9,0-18-6.6-18-18.4v-21.3h10.7v21.3c0,4.7,3.3,7.3,7.1,7.3c3.8,0,7.1-2.3,7.1-7.3v-14.1
		c0-10.2,8.3-18.6,18.6-18.6S100.6,304.6,100.6,315.8"/>
	<path class="st1" d="M187.7,245.7c0,8.1-6.3,13.4-14.3,13.4c-0.8,0-1.5-0.1-2.3-0.2v14.9c0,1.7,0.2,4,1.3,5.9
		c-1-0.1-2.3-0.1-3.8-0.1h-1.9c-1.6,0-2.8,0-3.9,0.1c1.2-1.8,1.4-4.1,1.4-5.9v-35.1c0-1.7-0.2-3.9-1.4-5.8c0.7,0.1,1.7,0.1,2.8,0.1
		c3.2,0,5.2-0.1,7.4-0.1C183.4,232.9,187.7,239.2,187.7,245.7 M181.2,245.8c0-4-2.5-7.9-7.6-7.9c-1.1,0-1.9,0.1-2.5,0.1v16
		c0.7,0.1,1.4,0.2,2.1,0.2C178.3,254.1,181.2,250.2,181.2,245.8"/>
	<path class="st1" d="M216.8,279.5h-8.4c-4.1-4.9-3.3-18.7-10.5-19.7v14.3c0,1.6,0.2,3.7,1.3,5.5c-0.9-0.1-2.2-0.1-3.6-0.1h-1.8
		c-1.3,0-2.6,0-3.6,0.1c1.1-1.7,1.3-3.9,1.3-5.5v-32.8c0-1.6-0.2-3.6-1.3-5.4c1.5,0.1,2.7,0.1,4,0.1h0.1h5.5
		c9.7,0,13.7,5.3,13.7,11.2c0,5.9-4,10.7-8.3,11.5C211.2,262.7,212.6,277.6,216.8,279.5 M207.4,247.9c0-3.6-2.3-7.3-7.1-7.3h-2.4
		v14.9h2C204.6,255.5,207.4,251.9,207.4,247.9"/>
	<path class="st1" d="M229.7,280.2c-9.3,0-13.2-8.6-13.2-22.4c0-13.8,3.9-22.4,13.2-22.4c9.3,0,13.2,8.7,13.2,22.5
		C242.9,271.5,239,280.2,229.7,280.2 M229.8,240.3c-5.8,0-6.8,10.8-6.8,17.5c0,7,1.1,17.5,6.8,17.5c5.7,0,6.6-10.5,6.6-17.5
		C236.4,251.1,235.5,240.3,229.8,240.3"/>
	<path class="st1" d="M271.9,259.4c-1.4,1.7-1.7,3.9-1.7,5.5v14.9c-0.3-0.5-0.9-0.6-1.7-0.6c-1.9,0-4.2,1.1-7.4,1.1
		c-9.3,0-15-9.1-15-22.4c0-13.6,5.8-22.4,16.6-22.4c2.1,0,4.7,0.3,7.4,1.8v8.5c-1.9-3.7-4.8-5.2-7.8-5.2c-6.3,0-9.7,6.7-9.7,17.2
		c0,11.4,4,17,9.3,17c0.9,0,1.7-0.2,2.5-0.4v-9.6c0-1.6-0.2-3.7-1.7-5.5c0.9,0.1,2.4,0.1,4,0.1h1.1
		C269.5,259.4,270.8,259.4,271.9,259.4"/>
	<path class="st1" d="M301.1,279.5h-8.4c-4.1-4.9-3.3-18.7-10.5-19.7v14.3c0,1.6,0.2,3.7,1.3,5.5c-0.9-0.1-2.2-0.1-3.6-0.1h-1.8
		c-1.3,0-2.6,0-3.6,0.1c1.1-1.7,1.3-3.9,1.3-5.5v-32.8c0-1.6-0.2-3.6-1.3-5.4c1.5,0.1,2.7,0.1,4,0.1h0.1h5.5
		c9.7,0,13.7,5.3,13.7,11.2c0,5.9-4,10.7-8.3,11.5C295.5,262.7,296.9,277.6,301.1,279.5 M291.7,247.9c0-3.6-2.3-7.3-7.1-7.3h-2.4
		v14.9h2C289,255.5,291.7,251.9,291.7,247.9"/>
	<path class="st1" d="M322.4,270.8l-0.7,8.8h-15.3c-1.3,0-2.6,0-3.6,0.1c1.1-1.7,1.3-3.9,1.3-5.5v-32.8c0-1.6-0.2-3.6-1.3-5.4
		c0.4,0,0.8,0.1,1.3,0.1h17.7l0.2,7.7c-0.9-1.7-2.8-2.4-4.8-2.4h-6.6v10.2c2.6,0,4.4,0,5.7-0.1c1.2-0.1,2.5-0.4,3.6-1.3
		c-0.1,0.9-0.1,6.6,0,7.6c-1.3-0.9-2.8-1.2-4-1.3c-1.3-0.1-3-0.1-5.4-0.1v18h4C317.9,274.4,320.9,273.9,322.4,270.8"/>
	<path class="st1" d="M334.4,274.9c3.1,0,5.6-2.1,5.6-5.3c0-4-4-7-8-10.4c-3.6-3.2-7-6.8-7-12.6c0-7.5,5.7-11.2,11.8-11.2
		c3,0,6,0.9,8.2,2.1v8.5c-2.1-3.6-5.2-5.5-8.3-5.5c-2.4,0-5.2,1.2-5.2,4.7c0,3.1,2.1,5.9,4.9,8.5c4.1,3.9,10.1,7.6,10.1,15.2
		c0,7.4-5.7,11.2-12.3,11.2c-2.4,0-5.8-0.5-8.4-2.1l-0.1-8.5C328.1,273.1,331.4,274.9,334.4,274.9"/>
	<path class="st1" d="M358.7,274.9c3.1,0,5.6-2.1,5.6-5.3c0-4-4-7-8-10.4c-3.6-3.2-7-6.8-7-12.6c0-7.5,5.7-11.2,11.8-11.2
		c3,0,6,0.9,8.2,2.1v8.5c-2.1-3.6-5.2-5.5-8.3-5.5c-2.4,0-5.2,1.2-5.2,4.7c0,3.1,2.1,5.9,4.9,8.5c4.1,3.9,10.1,7.6,10.1,15.2
		c0,7.4-5.7,11.2-12.3,11.2c-2.4,0-5.8-0.5-8.4-2.1l-0.1-8.5C352.4,273.1,355.8,274.9,358.7,274.9"/>
	<path class="st1" d="M381.2,274.2c0,1.6,0.2,3.7,1.3,5.5c-1-0.1-2.2-0.1-3.6-0.1h-1.8c-1.3,0-2.6,0-3.6,0.1
		c1.1-1.7,1.3-3.9,1.3-5.5v-32.8c0-1.6-0.2-3.6-1.3-5.4c1.5,0.1,2.7,0.1,4,0.1h0.1h0.7h0.1c1.3,0,2.5,0,4-0.1
		c-1.1,1.7-1.3,3.8-1.3,5.4V274.2z"/>
	<path class="st1" d="M410.7,241.3l-7.6,33.5c-0.2,1.1-0.3,2.1-0.3,2.8c0,0.9,0.2,1.5,0.5,1.9c-0.7-0.1-1.7-0.1-3-0.1h-0.1H398h-0.1
		c-1.3,0-2.2,0-2.7,0.1c0.3-0.5,0.5-1,0.5-1.8c0-0.5-0.1-1.1-0.2-1.8l-8-34.7c-0.5-2.3-1.4-4.2-2.8-5.2h9.8c-0.7,0.6-1,1.3-1,2.3
		c0,0.5,0.1,1,0.2,1.6c2.2,11.3,5.7,28.5,5.8,29.4c0.1-0.9,2.9-16.1,5.1-27.4c0.2-1.5,0.5-2.8,0.5-3.7c0-1-0.2-1.7-0.9-2.2h9.3
		C412.2,237.1,411.2,239,410.7,241.3"/>
	<path class="st1" d="M434.7,270.8l-0.7,8.8h-15.3c-1.3,0-2.6,0-3.6,0.1c1.1-1.7,1.3-3.9,1.3-5.5v-32.8c0-1.6-0.2-3.6-1.3-5.4
		c0.4,0,0.8,0.1,1.3,0.1h17.7l0.2,7.7c-0.9-1.7-2.8-2.4-4.8-2.4h-6.6v10.2c2.6,0,4.4,0,5.7-0.1c1.2-0.1,2.5-0.4,3.6-1.3
		c-0.1,0.9-0.1,6.6,0,7.6c-1.3-0.9-2.8-1.2-4-1.3c-1.3-0.1-3-0.1-5.4-0.1v18h4C430.2,274.4,433.2,273.9,434.7,270.8"/>
	<path class="st1" d="M189.6,321.8c0,14.8-5.6,23.5-16.2,23.5h-6.6h-0.1c-1.6,0-2.8,0-3.9,0.1c1.2-2,1.4-4.1,1.4-5.9v-35.1
		c0-1.7-0.2-3.9-1.4-5.8c1.7,0.1,2.8,0.1,4.4,0.1h0.1h5C184,298.7,189.6,306.7,189.6,321.8 M182.8,322.1c0-9.2-1.7-18.4-9.7-18.4
		h-2.1v36.6h2.5C179.5,340.3,182.8,334.1,182.8,322.1"/>
	<path class="st1" d="M219.6,345.3h-8.4c-4.1-4.9-3.3-18.7-10.5-19.7v14.3c0,1.6,0.2,3.7,1.3,5.5c-0.9-0.1-2.2-0.1-3.6-0.1h-1.8
		c-1.3,0-2.6,0-3.6,0.1c1.1-1.7,1.3-3.9,1.3-5.5v-32.8c0-1.6-0.2-3.6-1.3-5.4c1.5,0.1,2.7,0.1,4,0.1h0.1h5.5
		c9.7,0,13.7,5.3,13.7,11.2c0,5.9-4,10.7-8.3,11.5C213.9,328.4,215.4,343.4,219.6,345.3 M210.1,313.6c0-3.6-2.3-7.3-7.1-7.3h-2.4
		v14.9h2C207.4,321.2,210.1,317.6,210.1,313.6"/>
	<path class="st1" d="M229,339.9c0,1.6,0.2,3.7,1.3,5.5c-0.9-0.1-2.2-0.1-3.6-0.1h-1.8c-1.3,0-2.6,0-3.6,0.1
		c1.1-1.7,1.3-3.9,1.3-5.5v-32.8c0-1.6-0.2-3.6-1.3-5.4c1.5,0.1,2.7,0.1,4,0.1h0.1h0.7h0.1c1.3,0,2.5,0,4-0.1
		c-1.1,1.7-1.3,3.8-1.3,5.4V339.9z"/>
	<path class="st1" d="M258.7,339.9c0,2.4,0.2,4.4,1,5.5c-0.7-0.1-2-0.1-3.3-0.1h-0.1h-1.8h-0.1c-1.4,0-2.7,0-3.7,0.1
		c0.7-0.8,0.3-3.2-0.2-4.8c-0.1-0.2-0.2-0.2-0.2-0.4c0-0.1-0.1-0.1-0.1-0.2c-5.6-15.1-9.3-24.9-9.5-26c0.1,1.1,0.1,5.8,0.1,25.9
		c0,1.6,0.2,3.7,1.3,5.5c-0.9-0.1-2.2-0.1-3.6-0.1h-1.2c-1.3,0-2.6,0-3.6,0.1c1.1-1.7,1.3-3.9,1.3-5.5v-32.8c0-1.6-0.2-3.7-1.3-5.5
		c0.9,0.1,2.2,0.1,3.6,0.1h0.1h1.8h0.1c1.3,0,2.5,0,3.4-0.1c-0.1,0.2-0.2,0.4-0.2,0.7c0,1,0.6,2.8,1.3,4.7
		c4.2,10.9,8.9,23.7,9.2,24.8c0-2-0.1-16.3-0.1-24.8l-0.1,0.1c0-1.6-0.2-3.7-1.3-5.5c0.9,0.1,2.2,0.1,3.6,0.1h0.1h1h0.1
		c1.3,0,2.6,0,3.6-0.1c-1.1,1.7-1.3,3.9-1.3,5.5V339.9z"/>
	<path class="st1" d="M290.8,345.3h-8.5c-3.7-4.2-2.9-19.1-11.2-23.8v18.4c0,1.6,0.2,3.7,1.3,5.5c-0.9-0.1-2.2-0.1-3.6-0.1H267
		c-1.3,0-2.6,0-3.6,0.1c1.1-1.7,1.3-3.9,1.3-5.5v-32.8c0-1.6-0.2-3.6-1.3-5.4c1.5,0.1,2.7,0.1,4,0.1h0.1h0.7h0.1c1.3,0,2.5,0,4-0.1
		c-1.1,1.7-1.3,3.8-1.3,5.4v13.8l8.2-13.2c1.2-2.1,1.7-3.4,1.7-4.4c0-0.6-0.2-1.1-0.6-1.5h9.7c-0.9,0.6-1.4,1.3-2.8,3.2l-10.2,15
		C285.7,324,286.2,343.5,290.8,345.3"/>
	<path class="st1" d="M301.8,340.7c3.1,0,5.6-2.1,5.6-5.3c0-4-4-7-8-10.4c-3.6-3.2-7-6.8-7-12.6c0-7.5,5.7-11.2,11.8-11.2
		c3,0,6,1,8.2,2.1v8.5c-2.1-3.6-5.2-5.5-8.3-5.5c-2.5,0-5.2,1.2-5.2,4.7c0,3.1,2.1,5.9,4.9,8.5c4.1,3.9,10.1,7.6,10.1,15.2
		c0,7.4-5.7,11.2-12.3,11.2c-2.4,0-5.8-0.5-8.4-2.1l-0.1-8.5C295.6,338.8,298.9,340.7,301.8,340.7"/>
</g>
</svg>
